HIERARCHY
ROOT Hips
{
  OFFSET 5.80788e-005 67.184 3.4734
  CHANNELS 6 Xposition Yposition Zposition Zrotation Xrotation Yrotation
  JOINT Chest
  {
    OFFSET 0 8.7983 -4.7612
    CHANNELS 6 Xposition Yposition Zposition Zrotation Xrotation Yrotation
    JOINT Chest2
    {
      OFFSET 0 8.0291 0.4195
      CHANNELS 6 Xposition Yposition Zposition Zrotation Xrotation Yrotation
      JOINT Chest3
      {
        OFFSET 0 9.9351 -2.2114
        CHANNELS 6 Xposition Yposition Zposition Zrotation Xrotation Yrotation
        JOINT Neck
        {
          OFFSET 0 22.3885 -0.4656
          CHANNELS 6 Xposition Yposition Zposition Zrotation Xrotation Yrotation
          JOINT Head
          {
            OFFSET -0.0001 12.643 3.4389
            CHANNELS 6 Xposition Yposition Zposition Zrotation Xrotation Yrotation
            End Site
            {
              OFFSET 0.0001 17.6655 0.5274
            }
          }
        }
        JOINT LeftCollar
        {
          OFFSET 2.2603 21.606 7.4023
          CHANNELS 6 Xposition Yposition Zposition Zrotation Xrotation Yrotation
          JOINT LeftShoulder
          {
            OFFSET 13.5163 -1.1332 -5.0146
            CHANNELS 6 Xposition Yposition Zposition Zrotation Xrotation Yrotation
            JOINT LeftElbow
            {
              OFFSET -0.0995 -28.05 -0.2431
              CHANNELS 6 Xposition Yposition Zposition Zrotation Xrotation Yrotation
              JOINT LeftWrist
              {
                OFFSET 0.0679 -23.3996 -0.1402
                CHANNELS 6 Xposition Yposition Zposition Zrotation Xrotation Yrotation
                JOINT LeftFinger1
                {
                  OFFSET 0.7932 -9.069 2.5189
                  CHANNELS 6 Xposition Yposition Zposition Zrotation Xrotation Yrotation
                  JOINT LeftFinger11
                  {
                    OFFSET -0.8272 -3.3923 0.5977
                    CHANNELS 6 Xposition Yposition Zposition Zrotation Xrotation Yrotation
                    JOINT LeftFinger12
                    {
                      OFFSET -0.5649 -2.3158 0.4082
                      CHANNELS 6 Xposition Yposition Zposition Zrotation Xrotation Yrotation
                      End Site
                      {
                        OFFSET -0.4919 -1.6479 0.2673
                      }
                    }
                  }
                }
                JOINT LeftFinger2
                {
                  OFFSET 0.9159 -9.2044 0.2193
                  CHANNELS 6 Xposition Yposition Zposition Zrotation Xrotation Yrotation
                  JOINT LeftFinger21
                  {
                    OFFSET 0.0117 -4.1944 -0.0248
                    CHANNELS 6 Xposition Yposition Zposition Zrotation Xrotation Yrotation
                    JOINT LeftFinger22
                    {
                      OFFSET 0.0071 -2.3249 -0.0142
                      CHANNELS 6 Xposition Yposition Zposition Zrotation Xrotation Yrotation
                      End Site
                      {
                        OFFSET -0.1475 -2.0882 0.0028
                      }
                    }
                  }
                }
                JOINT LeftFinger3
                {
                  OFFSET 0.6113 -8.7231 -2.0637
                  CHANNELS 6 Xposition Yposition Zposition Zrotation Xrotation Yrotation
                  JOINT LeftFinger31
                  {
                    OFFSET -0.1927 -3.8059 -0.2383
                    CHANNELS 6 Xposition Yposition Zposition Zrotation Xrotation Yrotation
                    JOINT LeftFinger32
                    {
                      OFFSET -0.1091 -2.1688 -0.1362
                      CHANNELS 6 Xposition Yposition Zposition Zrotation Xrotation Yrotation
                      End Site
                      {
                        OFFSET -0.2358 -1.9176 -0.0906
                      }
                    }
                  }
                }
                JOINT LeftFinger4
                {
                  OFFSET -0.6151 -8.0947 -3.5641
                  CHANNELS 6 Xposition Yposition Zposition Zrotation Xrotation Yrotation
                  JOINT LeftFinger41
                  {
                    OFFSET -0.4882 -2.341 -0.6462
                    CHANNELS 6 Xposition Yposition Zposition Zrotation Xrotation Yrotation
                    JOINT LeftFinger42
                    {
                      OFFSET -0.3575 -1.7167 -0.4742
                      CHANNELS 6 Xposition Yposition Zposition Zrotation Xrotation Yrotation
                      End Site
                      {
                        OFFSET -0.4187 -1.5237 -0.3496
                      }
                    }
                  }
                }
                JOINT LeftFinger0
                {
                  OFFSET -1.42 -1.8761 1.4223
                  CHANNELS 6 Xposition Yposition Zposition Zrotation Xrotation Yrotation
                  JOINT LeftFinger01
                  {
                    OFFSET -1.1471 -3.4929 2.6334
                    CHANNELS 6 Xposition Yposition Zposition Zrotation Xrotation Yrotation
                    JOINT LeftFinger02
                    {
                      OFFSET -0.823 -2.3 1.6571
                      CHANNELS 6 Xposition Yposition Zposition Zrotation Xrotation Yrotation
                      End Site
                      {
                        OFFSET -0.5822 -1.6914 1.1582
                      }
                    }
                  }
                }
              }
            }
          }
        }
        JOINT RightCollar
        {
          OFFSET -2.2603 21.606 7.4023
          CHANNELS 6 Xposition Yposition Zposition Zrotation Xrotation Yrotation
          JOINT RightShoulder
          {
            OFFSET -13.5187 -1.1334 -5.0155
            CHANNELS 6 Xposition Yposition Zposition Zrotation Xrotation Yrotation
            JOINT RightElbow
            {
              OFFSET 0.0994 -28.0499 -0.2431
              CHANNELS 6 Xposition Yposition Zposition Zrotation Xrotation Yrotation
              JOINT RightWrist
              {
                OFFSET -0.0679 -23.3996 -0.1402
                CHANNELS 6 Xposition Yposition Zposition Zrotation Xrotation Yrotation
                JOINT RightFinger1
                {
                  OFFSET -0.7932 -9.0691 2.5189
                  CHANNELS 6 Xposition Yposition Zposition Zrotation Xrotation Yrotation
                  JOINT RightFinger11
                  {
                    OFFSET 0.8272 -3.3923 0.5977
                    CHANNELS 6 Xposition Yposition Zposition Zrotation Xrotation Yrotation
                    JOINT RightFinger12
                    {
                      OFFSET 0.565 -2.3158 0.4082
                      CHANNELS 6 Xposition Yposition Zposition Zrotation Xrotation Yrotation
                      End Site
                      {
                        OFFSET 0.4919 -1.6479 0.2673
                      }
                    }
                  }
                }
                JOINT RightFinger2
                {
                  OFFSET -0.916 -9.2044 0.2193
                  CHANNELS 6 Xposition Yposition Zposition Zrotation Xrotation Yrotation
                  JOINT RightFinger21
                  {
                    OFFSET -0.0117 -4.1944 -0.0248
                    CHANNELS 6 Xposition Yposition Zposition Zrotation Xrotation Yrotation
                    JOINT RightFinger22
                    {
                      OFFSET -0.0071 -2.3249 -0.0142
                      CHANNELS 6 Xposition Yposition Zposition Zrotation Xrotation Yrotation
                      End Site
                      {
                        OFFSET 0.1475 -2.0882 0.0028
                      }
                    }
                  }
                }
                JOINT RightFinger3
                {
                  OFFSET -0.6113 -8.7231 -2.0637
                  CHANNELS 6 Xposition Yposition Zposition Zrotation Xrotation Yrotation
                  JOINT RightFinger31
                  {
                    OFFSET 0.1927 -3.8059 -0.2383
                    CHANNELS 6 Xposition Yposition Zposition Zrotation Xrotation Yrotation
                    JOINT RightFinger32
                    {
                      OFFSET 0.1091 -2.1688 -0.1362
                      CHANNELS 6 Xposition Yposition Zposition Zrotation Xrotation Yrotation
                      End Site
                      {
                        OFFSET 0.2358 -1.9176 -0.0906
                      }
                    }
                  }
                }
                JOINT RightFinger4
                {
                  OFFSET 0.6151 -8.0947 -3.564
                  CHANNELS 6 Xposition Yposition Zposition Zrotation Xrotation Yrotation
                  JOINT RightFinger41
                  {
                    OFFSET 0.4882 -2.341 -0.6462
                    CHANNELS 6 Xposition Yposition Zposition Zrotation Xrotation Yrotation
                    JOINT RightFinger42
                    {
                      OFFSET 0.3574 -1.7166 -0.4742
                      CHANNELS 6 Xposition Yposition Zposition Zrotation Xrotation Yrotation
                      End Site
                      {
                        OFFSET 0.4187 -1.5237 -0.3496
                      }
                    }
                  }
                }
                JOINT RightFinger0
                {
                  OFFSET 1.4199 -1.8761 1.4221
                  CHANNELS 6 Xposition Yposition Zposition Zrotation Xrotation Yrotation
                  JOINT RightFinger01
                  {
                    OFFSET 1.1472 -3.4929 2.6336
                    CHANNELS 6 Xposition Yposition Zposition Zrotation Xrotation Yrotation
                    JOINT RightFinger02
                    {
                      OFFSET 0.8229 -2.3 1.6571
                      CHANNELS 6 Xposition Yposition Zposition Zrotation Xrotation Yrotation
                      End Site
                      {
                        OFFSET 0.5822 -1.6914 1.1582
                      }
                    }
                  }
                }
              }
            }
          }
        }
      }
    }
  }
  JOINT RightHip
  {
    OFFSET -9.412 3.9771 -0.7758
    CHANNELS 6 Xposition Yposition Zposition Zrotation Xrotation Yrotation
    JOINT RightKnee
    {
      OFFSET -0.7531 -40.938 0
      CHANNELS 6 Xposition Yposition Zposition Zrotation Xrotation Yrotation
      JOINT RightAnkle
      {
        OFFSET 0 -40.1986 0
        CHANNELS 6 Xposition Yposition Zposition Zrotation Xrotation Yrotation
        JOINT RightToe
        {
          OFFSET 0 -4.4182 9.239
          CHANNELS 6 Xposition Yposition Zposition Zrotation Xrotation Yrotation
          End Site
          {
            OFFSET 0 0 6.1981
          }
        }
      }
    }
  }
  JOINT LeftHip
  {
    OFFSET 9.4119 3.9773 -0.7758
    CHANNELS 6 Xposition Yposition Zposition Zrotation Xrotation Yrotation
    JOINT LeftKnee
    {
      OFFSET 0.7532 -40.9383 0
      CHANNELS 6 Xposition Yposition Zposition Zrotation Xrotation Yrotation
      JOINT LeftAnkle
      {
        OFFSET 0 -40.1986 0
        CHANNELS 6 Xposition Yposition Zposition Zrotation Xrotation Yrotation
        JOINT LeftToe
        {
          OFFSET 0 -4.4182 9.239
          CHANNELS 6 Xposition Yposition Zposition Zrotation Xrotation Yrotation
          End Site
          {
            OFFSET 0 0 6.1981
          }
        }
      }
    }
  }
}
MOTION
Frames:	4
Frame Time:	0.0333333
0.838537 32.9687 18.1939 5.0324e-008 23.55 -9.12846e-008 1.11022e-016 8.7983 -4.7612 0.333625 2.25979 -0.501163 -2.22045e-016 8.0291 0.4195 0.687841 4.51656 -1.01669 2.22045e-016 9.9351 -2.2114 0.687841 4.51654 -1.01669 0 22.3885 -0.4656 -1.55141e-006 1.49152 2.48052e-006 -0.0001 12.643 3.4389 -2.30188e-007 -1.77439 1.32238e-009 2.2603 21.606 7.4023 -21.7986 29.9858 -17.5474 13.5163 -1.1332 -5.0146 58.2356 -22.0527 82.4593 -0.0995 -28.05 -0.2431 -90.9345 -2.97024 9.82584 0.0679 -23.3996 -0.1402 3.34515 -43.3005 -135.088 0.7932 -9.06901 2.5189 3.18055e-015 0 9.54166e-015 -0.8272 -3.3923 0.5977 -1.60287e-006 1.73163e-006 -1.80173e-006 -0.5649 -2.3158 0.4082 -3.18055e-015 -3.18055e-015 5.56597e-015 0.9159 -9.20441 0.2193 3.18055e-015 0 9.54166e-015 0.0117 -4.1944 -0.0248 -0.0128328 0.00232853 9.31219e-005 0.0071 -2.3249 -0.0142 0 0 -7.95139e-016 0.6113 -8.72311 -2.0637 3.18055e-015 0 9.54166e-015 -0.1927 -3.8059 -0.2383 -0.0160848 0.00300305 0.000853819 -0.1091 -2.1688 -0.1362 3.18055e-015 -1.59028e-015 2.38542e-015 -0.6151 -8.09471 -3.5641 3.18055e-015 0 9.54166e-015 -0.4882 -2.341 -0.6462 -0.0125787 0.00312679 0.00283019 -0.3575 -1.7167 -0.4742 3.18055e-015 -3.18055e-015 5.56597e-015 -1.42 -1.8761 1.4223 3.18055e-015 0 9.54166e-015 -1.1471 -3.4929 2.6334 -1.60287e-006 1.73163e-006 -1.80173e-006 -0.823 -2.3 1.6571 -3.18055e-015 -3.18055e-015 5.56597e-015 -2.2603 21.606 7.4023 19.934 28.0564 12.7564 -13.5187 -1.1334 -5.0155 -55.1492 -25.5471 -78.9919 0.0994 -28.0499 -0.2431 90.8001 -1.77731 -8.51481 -0.0679 -23.3996 -0.1402 -3.18882 -40.0418 136.185 -0.7932 -9.0691 2.5189 -9.35223e-006 -3.14397e-008 -4.26898e-006 0.8272 -3.3923 0.5977 4.71281e-006 -1.80146e-006 2.40406e-007 0.565 -2.3158 0.4082 0 0 -1.59028e-015 -0.916 -9.2044 0.2193 -9.35223e-006 -3.14397e-008 -4.26898e-006 -0.0117 -4.1944 -0.0248 0.0129616 0.0023213 -9.27256e-005 -0.0071 -2.3249 -0.0142 -3.03853e-006 3.02693e-007 -7.09328e-007 -0.6113 -8.7231 -2.0637 -9.35223e-006 -3.14397e-008 -4.26898e-006 0.1927 -3.8059 -0.2383 0.0163321 0.00302131 -0.000872174 0.1091 -2.1688 -0.1362 -6.36111e-015 1.59028e-015 -4.77083e-015 0.6151 -8.0947 -3.564 -9.35223e-006 -3.14397e-008 -4.26898e-006 0.4882 -2.341 -0.6462 0.0146258 0.00368522 -0.00327017 0.3574 -1.7166 -0.4742 2.63172e-006 5.87356e-006 -1.41139e-005 1.4199 -1.8761 1.4221 -9.35223e-006 -3.14397e-008 -4.26898e-006 1.1472 -3.4929 2.6336 4.71281e-006 -1.80146e-006 2.40406e-007 0.8229 -2.3 1.6571 0 0 -1.59028e-015 -9.412 3.9771 -0.7758 -115.11 -64.6188 -113.176 -0.7531 -40.938 7.10543e-015 -168.019 77.3387 166.231 1.77636e-015 -40.1986 7.10543e-015 -1.70083 -14.9541 -7.26353 0 -4.4182 9.239 1.64025e-006 -2.29468e-006 1.98908e-007 9.4119 3.9773 -0.7758 116.053 -65.6029 115.491 0.7532 -40.9383 7.10543e-015 168.933 76.4831 -167.096 0 -40.1986 7.10543e-015 3.29364 -16.3254 8.70817 3.55271e-015 -4.4182 9.239 -3.18055e-015 -6.73513e-008 6.36111e-015 
0.838519 32.967 17.8432 2.63668e-007 24.3395 -1.07432e-007 0 8.7983 -4.7612 0.335772 2.06449 -0.498323 0 8.0291 0.4195 0.690182 4.12594 -1.00974 0 9.9351 -2.2114 0.690183 4.12595 -1.00974 0 22.3885 -0.4656 1.46193e-006 0.420469 -2.37032e-006 -0.0001 12.643 3.4389 2.47657e-009 -3.10916 2.8121e-007 2.2603 21.606 7.4023 -21.7986 29.9858 -17.5474 13.5163 -1.1332 -5.0146 58.2356 -22.0527 82.4592 -0.0995 -28.05 -0.2431 -91.2123 -2.9342 9.80184 0.0679 -23.3996 -0.1402 3.7694 -43.3174 -134.911 0.7932 -9.069 2.5189 9.54166e-015 0 3.97569e-015 -0.8272 -3.3923 0.5977 2.20695e-032 -1.59028e-015 7.95139e-016 -0.5649 -2.3158 0.4082 -6.36111e-015 4.77083e-015 7.95139e-016 0.9159 -9.2044 0.2193 9.54166e-015 0 3.97569e-015 0.0117 -4.1944 -0.0248 -0.01282 0.00231789 8.24474e-005 0.0071 -2.3249 -0.0142 -0 -3.18055e-015 -0 0.6113 -8.7231 -2.0637 9.54166e-015 0 3.97569e-015 -0.1927 -3.8059 -0.2383 -0.0160634 0.00299843 0.000866263 -0.1091 -2.1688 -0.1362 -6.62086e-032 -1.59028e-015 -2.38542e-015 -0.6151 -8.0947 -3.5641 9.54166e-015 0 3.97569e-015 -0.4882 -2.341 -0.6462 -0.0125577 0.00311575 0.00281554 -0.3575 -1.7167 -0.4742 -3.18055e-015 1.59028e-015 -1.59028e-015 -1.42 -1.8761 1.4223 9.54166e-015 0 3.97569e-015 -1.1471 -3.4929 2.6334 2.20695e-032 -1.59028e-015 7.95139e-016 -0.823 -2.3 1.6571 -6.36111e-015 4.77083e-015 7.95139e-016 -2.2603 21.606 7.4023 19.9341 28.0564 12.7564 -13.5187 -1.1334 -5.0155 -55.1492 -25.5471 -78.992 0.0994 -28.0499 -0.2431 91.0707 -1.73664 -8.48996 -0.0679 -23.3996 -0.1402 -3.60595 -40.0538 136.013 -0.7932 -9.0691 2.5189 -4.41391e-032 3.18055e-015 7.95139e-016 0.8272 -3.3923 0.5977 -6.62086e-032 1.59028e-015 2.38542e-015 0.565 -2.3158 0.4082 3.18055e-015 0 7.95139e-016 -0.916 -9.2044 0.2193 -4.41391e-032 3.18055e-015 7.95139e-016 -0.0117 -4.1944 -0.0248 0.0129329 0.00231887 -8.31832e-005 -0.0071 -2.3249 -0.0142 3.18055e-015 0 -7.15625e-015 -0.6113 -8.7231 -2.0637 -4.41391e-032 3.18055e-015 7.95139e-016 0.1927 -3.8059 -0.2383 0.0163569 0.00304693 -0.000881449 0.1091 -2.1688 -0.1362 -8.82781e-032 3.18055e-015 1.59028e-015 0.6151 -8.0947 -3.564 -4.41391e-032 3.18055e-015 7.95139e-016 0.4882 -2.341 -0.6462 0.0145779 0.00368167 -0.00326589 0.3574 -1.7166 -0.4742 -3.18055e-015 -1.59028e-015 -1.59028e-015 1.4199 -1.8761 1.4221 -4.41391e-032 3.18055e-015 7.95139e-016 1.1472 -3.4929 2.6336 -6.62086e-032 1.59028e-015 2.38542e-015 0.8229 -2.3 1.6571 3.18055e-015 0 7.95139e-016 -9.412 3.9771 -0.7758 -117.582 -64.7507 -115.403 -0.7531 -40.938 0 -168.042 77.3159 166.247 3.55271e-015 -40.1986 7.10543e-015 -1.384 -14.5674 -7.75903 -3.55271e-015 -4.4182 9.239 -1.63964e-006 4.75592e-007 -2.04153e-007 9.4119 3.9773 -0.7758 118.669 -65.7047 117.866 0.7532 -40.9383 7.10543e-015 168.953 76.4605 -167.108 0 -40.1986 -7.10543e-015 2.9862 -15.9255 9.19144 3.55271e-015 -4.4182 9.239 -3.78194e-007 -8.68683e-007 1.45799e-006 
0.838511 32.9668 17.4925 6.85507e-008 25.1288 -2.0601e-008 1.11022e-016 8.7983 -4.7612 0.337907 1.86917 -0.495453 -2.22045e-016 8.0291 0.4195 0.692538 3.73533 -1.00274 0 9.9351 -2.2114 0.692538 3.73533 -1.00274 -4.44089e-016 22.3885 -0.4656 2.60192e-005 -0.651368 -3.96106e-005 -0.0001 12.643 3.4389 2.25722e-007 -4.44575 1.16637e-006 2.2603 21.606 7.4023 -21.7986 29.986 -17.5474 13.5163 -1.1332 -5.0146 58.2355 -22.0527 82.4593 -0.0995 -28.05 -0.2431 -91.4901 -2.89795 9.77794 0.0679 -23.3996 -0.1402 4.19386 -43.3333 -134.734 0.7932 -9.069 2.5189 1.32417e-030 1.59028e-014 -4.77083e-015 -0.8272 -3.3923 0.5977 -3.18055e-015 1.43125e-014 2.38542e-015 -0.5649 -2.3158 0.4082 3.18055e-015 1.27222e-014 6.36111e-015 0.9159 -9.2044 0.2193 1.32417e-030 1.59028e-014 -4.77083e-015 0.0117 -4.1944 -0.0248 -0.0127943 0.00232198 9.52592e-005 0.0071 -2.3249 -0.0142 3.18055e-015 -1.59028e-015 5.56597e-015 0.6113 -8.7231 -2.0637 1.32417e-030 1.59028e-014 -4.77083e-015 -0.1927 -3.8059 -0.2383 -0.0160324 0.00299369 0.000862871 -0.1091 -2.1688 -0.1362 3.18055e-015 0 -3.97569e-015 -0.6151 -8.0947 -3.5641 1.32417e-030 1.59028e-014 -4.77083e-015 -0.4882 -2.341 -0.6462 -0.0126229 0.0031223 0.00283479 -0.3575 -1.7167 -0.4742 3.25523e-006 -1.37469e-006 1.69377e-006 -1.42 -1.8761 1.4223 1.32417e-030 1.59028e-014 -4.77083e-015 -1.1471 -3.4929 2.6334 -3.18055e-015 1.43125e-014 2.38542e-015 -0.823 -2.3 1.6571 3.18055e-015 1.27222e-014 6.36111e-015 -2.2603 21.606 7.4023 19.9341 28.0565 12.7563 -13.5187 -1.1334 -5.0155 -55.1492 -25.5471 -78.9919 0.0994 -28.0499 -0.2431 91.3412 -1.69602 -8.46536 -0.0679 -23.3996 -0.1402 -4.02313 -40.0648 135.841 -0.7932 -9.0691 2.5189 -6.36111e-015 -1.59028e-015 -0 0.8272 -3.3923 0.5977 -4.27427e-008 -6.24825e-007 -1.48094e-006 0.565 -2.3158 0.4082 -8.82781e-032 3.18055e-015 1.59028e-015 -0.916 -9.2044 0.2193 -6.36111e-015 -1.59028e-015 -0 -0.0117 -4.1944 -0.0248 0.0129052 0.00231418 -8.43854e-005 -0.0071 -2.3249 -0.0142 9.54166e-015 -1.59028e-015 -5.56597e-015 -0.6113 -8.7231 -2.0637 -6.36111e-015 -1.59028e-015 -0 0.1927 -3.8059 -0.2383 0.0163009 0.00303231 -0.000878583 0.1091 -2.1688 -0.1362 6.36111e-015 0 -4.77083e-015 0.6151 -8.0947 -3.564 -6.36111e-015 -1.59028e-015 -0 0.4882 -2.341 -0.6462 0.0145785 0.0036817 -0.00327025 0.3574 -1.7166 -0.4742 4.85779e-007 -1.00334e-005 1.10097e-005 1.4199 -1.8761 1.4221 -6.36111e-015 -1.59028e-015 -0 1.1472 -3.4929 2.6336 -4.27427e-008 -6.24825e-007 -1.48094e-006 0.8229 -2.3 1.6571 -8.82781e-032 3.18055e-015 1.59028e-015 -9.412 3.9771 -0.7758 -120.074 -64.8416 -117.651 -0.7531 -40.938 -7.10543e-015 -168.065 77.2926 166.263 -3.55271e-015 -40.1986 -7.10543e-015 -1.06437 -14.1836 -8.25597 -3.55271e-015 -4.4182 9.239 1.89653e-006 -4.59903e-006 -4.43964e-006 9.4119 3.9773 -0.7758 121.302 -65.7618 120.256 0.7532 -40.9383 -7.10543e-015 168.973 76.4374 -167.121 0 -40.1986 0 2.67594 -15.5284 9.6761 0 -4.4182 9.239 -4.77083e-015 -2.39027e-006 -3.18055e-015 
0.838499 32.9682 17.1417 -7.63539e-008 25.918 2.8515e-007 0 8.7983 -4.7612 0.34005 1.67396 -0.492582 0 8.0291 0.4195 0.694937 3.34488 -0.995738 0 9.9351 -2.2114 0.694936 3.34489 -0.995736 0 22.3885 -0.4656 1.09695e-005 -1.72421 -1.67853e-005 -0.0001 12.643 3.4389 5.90558e-008 -5.78381 -4.93654e-008 2.2603 21.606 7.4023 -21.7986 29.9859 -17.5474 13.5163 -1.1332 -5.0146 58.2355 -22.0527 82.4592 -0.0995 -28.05 -0.2431 -91.7679 -2.86177 9.75421 0.0679 -23.3996 -0.1402 4.61857 -43.3482 -134.557 0.7932 -9.069 2.5189 -3.18055e-015 1.59028e-015 8.74653e-015 -0.8272 -3.3923 0.5977 6.19091e-007 5.325e-006 5.05985e-006 -0.5649 -2.3158 0.4082 8.82781e-031 -6.36111e-015 7.95139e-015 0.9159 -9.2044 0.2193 -3.18055e-015 1.59028e-015 8.74653e-015 0.0117 -4.1944 -0.0248 -0.012814 0.00232675 8.7004e-005 0.0071 -2.3249 -0.0142 -2.20695e-032 -1.59028e-015 -7.95139e-016 0.6113 -8.7231 -2.0637 -3.18055e-015 1.59028e-015 8.74653e-015 -0.1927 -3.8059 -0.2383 -0.016037 0.00299621 0.000852914 -0.1091 -2.1688 -0.1362 1.02451e-006 1.16076e-005 9.06775e-006 -0.6151 -8.0947 -3.5641 -3.18055e-015 1.59028e-015 8.74653e-015 -0.4882 -2.341 -0.6462 -0.0126046 0.00313015 0.00283287 -0.3575 -1.7167 -0.4742 -6.36111e-015 -1.59028e-015 -0 -1.42 -1.8761 1.4223 -3.18055e-015 1.59028e-015 8.74653e-015 -1.1471 -3.4929 2.6334 6.19091e-007 5.325e-006 5.05985e-006 -0.823 -2.3 1.6571 8.82781e-031 -6.36111e-015 7.95139e-015 -2.2603 21.606 7.4023 19.9341 28.0564 12.7564 -13.5187 -1.1334 -5.0155 -55.1492 -25.5471 -78.9919 0.0994 -28.0499 -0.2431 91.6117 -1.6551 -8.44094 -0.0679 -23.3996 -0.1402 -4.44042 -40.0749 135.668 -0.7932 -9.0691 2.5189 -7.83223e-006 2.46396e-006 -3.87172e-006 0.8272 -3.3923 0.5977 -3.18055e-015 0 1.59028e-015 0.565 -2.3158 0.4082 -4.19243e-006 -9.74993e-006 8.88683e-006 -0.916 -9.2044 0.2193 -7.83223e-006 2.46396e-006 -3.87172e-006 -0.0117 -4.1944 -0.0248 0.0129221 0.00230682 -8.81453e-005 -0.0071 -2.3249 -0.0142 3.18055e-015 -4.77083e-015 7.95139e-016 -0.6113 -8.7231 -2.0637 -7.83223e-006 2.46396e-006 -3.87172e-006 0.1927 -3.8059 -0.2383 0.0163357 0.00302901 -0.000866644 0.1091 -2.1688 -0.1362 -6.36111e-015 -1.59028e-015 1.59028e-015 0.6151 -8.0947 -3.564 -7.83223e-006 2.46396e-006 -3.87172e-006 0.4882 -2.341 -0.6462 0.0145618 0.00367084 -0.00325506 0.3574 -1.7166 -0.4742 -3.18055e-015 0 -3.18055e-015 1.4199 -1.8761 1.4221 -7.83223e-006 2.46396e-006 -3.87172e-006 1.1472 -3.4929 2.6336 -3.18055e-015 0 1.59028e-015 0.8229 -2.3 1.6571 -4.19243e-006 -9.74993e-006 8.88683e-006 -9.412 3.9771 -0.7758 -122.578 -64.8911 -119.912 -0.7531 -40.938 0 -168.089 77.2689 166.279 5.32907e-015 -40.1986 0 -0.741998 -13.8026 -8.75439 0 -4.4182 9.239 2.16596e-006 -2.12287e-006 9.14394e-006 9.4119 3.9773 -0.7758 123.941 -65.774 122.654 0.7532 -40.9383 0 168.994 76.4139 -167.133 0 -40.1986 -7.10543e-015 2.36293 -15.134 10.1621 0 -4.4182 9.239 4.05572e-006 4.21683e-007 -2.51338e-006 
